<?xml version="1.0" encoding="UTF-8" standalone="no"?>
<!-- Generator: Adobe Illustrator 16.0.0, SVG Export Plug-In . SVG Version: 6.00 Build 0)  -->

<svg viewBox="0 0 622 193">
  <g
     id="shape"
     transform="translate(-65.335609,-104.00268)">
    <path
       d="m 228.39,162.687 c -1.625,1.654 -3.235,3.323 -4.875,4.963 -7.422,7.421 -14.842,14.843 -22.279,22.247 -15.29,15.224 -30.598,30.429 -45.884,45.656 -10.833,10.791 -21.647,21.6 -32.449,32.421 -0.614,0.615 -1.221,0.904 -2.092,0.91 -11.595,0.084 -23.189,0.189 -34.784,0.306 -6.446,0.065 -12.891,0.166 -19.337,0.229 -0.456,0.004 -1.123,0.308 -1.329,-0.285 -0.158,-0.456 0.461,-0.705 0.763,-1.016 7.755,-7.995 15.519,-15.981 23.271,-23.979 13.171,-13.586 26.329,-27.185 39.506,-40.766 6.713,-6.918 13.459,-13.806 20.183,-20.713 1.011,-1.038 2.061,-2.05 2.958,-3.181 1.363,-1.72 3.181,-2.37 5.25,-2.783 11.987,-2.389 23.958,-4.852 35.938,-7.279 11.452,-2.32 22.906,-4.628 34.36,-6.939 0.188,-0.038 0.381,-0.05 0.571,-0.073 0.075,0.093 0.152,0.187 0.229,0.282 z"
       id="path5"
       inkscape:connector-curvature="0"
       style="clip-rule:evenodd;fill:#96d021;fill-rule:evenodd" />
    <path
       d="m 166.621,264.23 c -7.196,0 -14.393,0.003 -21.589,-0.008 -0.419,0 -0.982,0.177 -1.182,-0.363 -0.165,-0.447 0.323,-0.7 0.575,-0.965 2.752,-2.894 5.515,-5.777 8.3,-8.64 5.955,-6.119 11.938,-12.211 17.884,-18.337 7.476,-7.703 14.919,-15.437 22.393,-23.141 5.697,-5.873 11.424,-11.718 17.132,-17.582 1.393,-1.431 2.812,-2.841 4.125,-4.342 0.812,-0.928 1.79,-1.348 2.944,-1.582 16.536,-3.36 33.068,-6.735 49.604,-10.103 2.152,-0.438 4.305,-0.878 6.466,-1.27 0.451,-0.082 1.085,-0.378 1.377,0.144 0.315,0.563 -0.334,0.864 -0.659,1.191 -6.564,6.575 -13.138,13.14 -19.711,19.705 -11.809,11.792 -23.617,23.583 -35.427,35.375 -7.98,7.968 -15.962,15.936 -23.945,23.901 -1.692,1.689 -3.423,3.343 -5.073,5.073 -0.541,0.566 -1.135,0.538 -1.775,0.538 -7.149,0.003 -21.439,0.272 -21.439,0.406 z"
       id="path7"
       inkscape:connector-curvature="0"
       style="clip-rule:evenodd;fill:#96d021;fill-rule:evenodd" />
    <path
       d="m 358.718,264.89 c -2.699,0 -5.399,-0.032 -8.098,0.016 -1.121,0.02 -1.979,-0.284 -2.787,-1.119 -6.217,-6.421 -12.467,-12.812 -18.725,-19.192 -9.192,-9.372 -18.404,-18.725 -27.602,-28.092 -9.057,-9.225 -18.096,-18.469 -27.18,-27.668 -0.866,-0.878 -0.901,-1.438 -0.045,-2.318 2.365,-2.434 4.692,-4.907 6.948,-7.442 0.833,-0.937 1.311,-0.803 2.124,0.015 9.938,9.989 19.905,19.949 29.872,29.909 17.779,17.769 35.565,35.529 53.333,53.309 0.688,0.689 2.079,1.483 1.776,2.183 -0.407,0.939 -1.874,0.347 -2.87,0.386 -2.246,0.088 -4.498,0.028 -6.748,0.028 0.002,-0.007 0.002,-0.011 0.002,-0.015 z"
       id="path9"
       inkscape:connector-curvature="0"
       style="clip-rule:evenodd;fill:#96d021;fill-rule:evenodd" />
    <path
       d="m 233.622,184.145 c -0.737,0.01 -1.115,-0.489 -1.489,-0.95 -2.074,-2.553 -4.102,-5.146 -6.226,-7.656 -0.613,-0.727 -0.729,-1.148 0.035,-1.814 2.217,-1.93 4.396,-3.903 6.555,-5.897 0.611,-0.565 0.988,-0.54 1.584,0.061 3.966,3.996 7.977,7.949 11.963,11.924 0.424,0.423 1.021,0.964 -0.089,1.247 -4.105,1.047 -8.221,2.06 -12.333,3.085 z"
       id="path11"
       inkscape:connector-curvature="0"
       style="clip-rule:evenodd;fill:#96d021;fill-rule:evenodd" />
  </g>
  <g
     id="text"
     transform="translate(1.1503162e-7,58.402323)">
    <path
       d="m 484.55339,75.009 c -1.781,5.812 -3.523,11.639 -5.352,17.438 -2.586,8.199 -6.042,15.986 -11.298,22.863 -2.259,2.955 -4.817,5.625 -8.257,7.254 -4.414,2.092 -8.381,0.738 -10.477,-3.688 -2.215,-4.675 -2.466,-9.746 -2.677,-14.795 -0.347,-8.303 0.242,-16.588 0.534,-24.88 0.111,-3.188 0.018,-6.382 0.018,-9.684 -0.487,0.367 -0.461,0.864 -0.552,1.3 -2.78,13.381 -7.095,26.225 -13.743,38.199 -4.893,8.814 -11.39,16.172 -20.458,20.92 -6.151,3.22 -12.649,4.545 -19.582,3.145 -5.741,-1.16 -10.018,-6.072 -9.927,-11.525 0.039,-2.346 1.146,-4.047 2.957,-4.555 1.083,-0.303 1.742,-0.144 1.62,1.225 -0.115,1.295 0.004,2.59 0.21,3.883 0.927,5.814 4.641,8.832 10.546,8.511 4.964,-0.27 9.1,-2.54 12.874,-5.532 6.365,-5.047 11.188,-11.402 15.017,-18.497 5.96,-11.044 11.28,-22.388 15.112,-34.368 2.428,-7.594 4.428,-15.28 3.901,-23.371 -0.062,-0.955 0.364,-1.345 1.19,-1.582 2.121,-0.609 4.261,-1.047 6.486,-1.006 3.312,0.062 5.229,1.404 6.262,4.547 0.884,2.687 1.081,5.478 1.134,8.287 0.136,7.272 -0.745,14.467 -1.577,21.668 -0.986,8.541 -1.995,17.084 -1.64,25.711 0.089,2.155 0.349,4.289 1.159,6.309 1.23,3.064 3.887,3.702 6.274,1.445 2.321,-2.193 3.856,-4.959 5.267,-7.781 5.412,-10.842 8.778,-22.389 11.651,-34.101 1.618,-6.599 3.054,-13.232 3.698,-20.011 0.113,-1.191 0.157,-2.394 0.175,-3.592 0.016,-1.033 0.368,-1.618 1.481,-1.867 2.667,-0.594 5.316,-0.869 8.004,-0.204 1.895,0.47 3.134,1.63 3.812,3.467 0.905,2.449 0.952,4.991 0.91,7.542 -0.116,7.183 -1.563,14.185 -2.925,21.196 -1.757,9.044 -3.106,18.132 -2.806,27.383 0.148,4.566 0.694,9.071 2.58,13.308 0.721,1.619 1.652,3.086 3.049,4.207 1.525,1.227 3.197,1.339 4.9,0.456 2.229,-1.155 3.628,-3.081 4.668,-5.302 0.184,-0.395 0.23,-0.996 0.806,-0.926 0.549,0.068 0.741,0.602 0.889,1.1 0.261,0.879 -0.034,1.691 -0.333,2.479 -2.202,5.823 -8.884,9.995 -15.096,9.569 -4.784,-0.329 -7.816,-2.93 -9.699,-7.131 -2.188,-4.882 -2.713,-10.092 -2.893,-15.346 -0.284,-8.269 0.59,-16.467 1.605,-24.656 0.376,-2.988 0.946,-5.975 0.503,-9.012 z"
       id="path15"
       inkscape:connector-curvature="0"
       style="clip-rule:evenodd;fill:#37322d;fill-rule:evenodd" />
    <path
       d="m 329.02239,3.445 c -1.127,2.098 -2.081,4.076 -3.426,5.812 -1.967,2.538 -4.23,4.653 -7.53,5.329 -3.245,0.664 -5.858,-0.489 -7.832,-2.952 -2.908,-3.628 -3.529,-7.885 -2.696,-12.34 1.743,-9.318 6.663,-16.315 15.542,-20.033 4.898,-2.051 9.941,-2.272 14.649,0.778 1.983,1.284 3.423,3.035 3.802,5.496 0.42,2.734 -1.134,5.421 -3.81,6.186 -3.571,1.022 -6.741,-0.135 -9.795,-1.918 0.234,-0.748 0.833,-0.711 1.233,-0.932 1.6,-0.881 2.795,-2.098 3.341,-3.868 0.86,-2.788 -0.867,-4.95 -3.765,-4.764 -1.726,0.112 -3.174,0.818 -4.415,1.981 -1.553,1.455 -2.745,3.181 -3.577,5.129 -2.31,5.409 -3.735,10.976 -2.789,16.923 0.094,0.589 0.247,1.179 0.455,1.736 1.088,2.918 3.408,3.374 5.51,1.042 2.334,-2.591 3.47,-5.809 4.476,-9.061 0.441,-1.425 0.736,-2.902 0.99,-4.374 0.145,-0.837 0.498,-1.149 1.306,-0.968 2.721,0.608 5.205,1.715 7.374,3.49 0.646,0.529 0.764,1.215 0.722,2.013 -0.123,2.349 -0.231,4.702 0.539,6.983 0.845,2.5 2.513,3.732 4.609,3.379 1.575,-0.267 2.672,-1.277 3.663,-2.435 0.342,-0.399 0.187,-0.839 0.106,-1.283 -0.948,-5.284 -0.792,-10.548 0.32,-15.79 0.515,-2.422 1.249,-4.742 3.082,-6.545 2.617,-2.571 7.386,-2.23 9.664,0.66 0.485,0.617 0.147,1.141 -0.024,1.68 -1.619,5.064 -2.761,10.217 -2.94,15.551 -0.073,2.197 -0.173,4.408 0.745,6.484 1.016,2.297 3.107,2.842 5.146,1.358 1.481,-1.079 2.364,-2.349 2.271,-4.388 -0.244,-5.35 0.457,-10.684 0.509,-16.033 0.025,-2.553 -0.014,-5.104 -0.323,-7.636 -0.128,-1.053 0.232,-1.542 1.169,-1.895 1.404,-0.528 2.803,-1.043 4.287,-1.312 4.644,-0.84 7.811,1.642 8.134,6.383 0.141,2.061 -0.19,4.081 -0.521,6.197 0.638,-0.18 0.81,-0.719 1.099,-1.104 2.786,-3.711 6.151,-6.687 10.579,-8.289 2.014,-0.729 4.078,-0.903 6.188,-0.394 2.158,0.521 3.142,1.643 3.176,3.901 0.054,3.523 -0.862,6.934 -1.302,10.4 -0.414,3.274 -0.84,6.549 -0.774,9.859 0.025,1.25 0.097,2.509 0.663,3.66 0.728,1.48 2.178,1.955 3.654,1.232 2.044,-1.001 2.955,-2.603 2.833,-4.876 -0.358,-6.667 0.377,-13.279 1.024,-19.896 0.258,-2.635 0.477,-5.275 0.766,-7.906 0.099,-0.896 -0.167,-1.271 -1.091,-1.316 -1.396,-0.068 -2.788,-0.242 -4.182,-0.375 -0.822,-0.078 -1.578,-0.297 -2.048,-1.058 -0.804,-1.303 -0.393,-2.107 1.114,-2.189 1.746,-0.095 3.492,-0.249 5.239,-0.271 1.09,-0.014 1.468,-0.449 1.501,-1.513 0.111,-3.495 0.489,-6.99 0.054,-10.483 -0.128,-1.02 0.182,-1.539 1.166,-1.882 2.329,-0.812 4.656,-1.493 7.167,-1.312 2.655,0.191 4.378,1.622 4.902,4.219 0.585,2.893 0.243,5.779 -0.217,8.641 -0.176,1.093 0.008,1.407 1.157,1.29 2.883,-0.295 5.781,-0.432 8.664,-0.72 1.09,-0.109 1.398,0.331 1.482,1.307 0.238,2.776 -1.135,4.771 -3.832,5.43 -2.469,0.603 -4.977,0.285 -7.469,0.262 -0.746,-0.007 -1.179,0.057 -1.346,0.94 -1.555,8.243 -3.367,16.445 -3.757,24.865 -0.081,1.757 0.002,3.506 0.449,5.209 0.685,2.605 2.659,3.336 4.922,1.857 1.964,-1.284 3.126,-3.181 4.024,-5.283 0.192,-0.451 0.142,-1.253 0.964,-1.049 0.671,0.167 0.857,0.797 0.878,1.426 0.05,1.521 -0.584,2.866 -1.402,4.047 -2.786,4.014 -6.425,6.671 -11.536,6.727 -3.904,0.044 -6.331,-2 -7.7,-5.783 -0.76,0.775 -1.373,1.469 -2.057,2.084 -2.543,2.291 -5.347,4.037 -8.932,4 -3.302,-0.035 -5.691,-1.761 -6.787,-4.893 -1.102,-3.148 -1.035,-6.402 -0.659,-9.637 0.456,-3.914 1.13,-7.803 1.614,-11.714 0.114,-0.923 0.538,-2.155 -0.565,-2.74 -1.211,-0.642 -2.244,0.216 -3.099,0.954 -3.063,2.648 -4.944,6.117 -6.515,9.769 -2.155,5.011 -3.246,10.278 -3.556,15.703 -0.053,0.923 -0.348,1.317 -1.179,1.562 -1.254,0.368 -2.52,0.692 -3.822,0.56 -2.83,-0.288 -4.146,-2.104 -4.525,-4.986 -0.919,0.771 -1.663,1.458 -2.471,2.062 -2.535,1.896 -5.251,3.258 -8.567,2.866 -2.786,-0.329 -4.536,-2.027 -5.608,-4.417 -0.648,-1.446 -1.023,-1.115 -1.98,-0.27 -3.436,3.039 -7.262,4.937 -12.04,3.506 -2.911,-0.871 -4.584,-2.912 -5.437,-5.699 -0.412,-1.351 -0.656,-2.76 -1.025,-4.346 z"
       id="path17"
       inkscape:connector-curvature="0"
       style="clip-rule:evenodd;fill:#37322d;fill-rule:evenodd" />
    <path
       d="m 556.73539,7.917 c -1.942,2 -4.054,3.551 -6.589,4.482 -4.17,1.532 -7.777,0.18 -9.879,-3.738 -0.256,-0.479 -0.494,-0.966 -0.82,-1.604 -1.406,1.387 -2.619,2.822 -4.184,3.869 -2.374,1.588 -4.877,2.719 -7.83,2.422 -3.73,-0.376 -6.178,-3.127 -6.656,-7.496 -0.45,-4.119 0.059,-8.188 0.758,-12.231 0.478,-2.756 1.055,-5.495 1.647,-8.229 0.181,-0.836 0.13,-1.187 -0.868,-1.102 -0.987,0.085 -2.021,0.101 -2.984,-0.1 -1.401,-0.291 -1.852,0.205 -2.152,1.554 -1.264,5.662 -3.012,11.175 -5.637,16.374 -0.471,0.935 -1.02,1.835 -1.602,2.705 -0.297,0.447 -0.707,0.846 -1.137,1.173 -0.454,0.347 -1.004,0.483 -1.516,0.056 -0.574,-0.48 -0.289,-0.984 0.004,-1.467 2.283,-3.756 3.645,-7.877 4.738,-12.095 0.766,-2.948 1.355,-5.933 1.689,-8.97 0.088,-0.796 -0.118,-1.236 -0.753,-1.741 -2.847,-2.263 -3.804,-5.392 -2.64,-8.2 0.436,-1.051 1.127,-1.887 2.057,-2.515 2.27,-1.535 4.707,-0.771 5.705,1.786 0.462,1.182 0.656,2.441 0.506,3.681 -0.144,1.189 0.248,1.532 1.395,1.523 2.852,-0.021 5.692,-0.145 8.519,-0.542 1.188,-0.168 2.384,-0.339 3.582,-0.216 1.261,0.129 2.003,0.758 1.933,2.157 -0.178,3.51 -1.107,6.895 -1.678,10.338 -0.653,3.943 -1.337,7.878 -1.316,11.895 0.007,1.307 0.133,2.6 0.63,3.817 0.721,1.764 2.479,2.361 4.045,1.296 1.782,-1.213 3.053,-2.535 2.581,-5.152 -0.996,-5.526 -0.597,-11.07 0.998,-16.469 0.866,-2.931 2.348,-5.493 5.68,-6.166 2.59,-0.521 4.658,0.689 6.508,2.342 0.576,0.514 0.184,1.108 0.006,1.666 -1.84,5.738 -3.058,11.584 -3.002,17.643 0.014,1.554 0.198,3.096 0.865,4.523 0.959,2.059 2.962,2.646 4.845,1.379 1.649,-1.109 2.671,-2.479 2.528,-4.712 -0.322,-4.997 0.359,-9.982 0.475,-14.978 0.064,-2.852 0.037,-5.703 -0.305,-8.534 -0.126,-1.049 0.244,-1.521 1.182,-1.884 1.968,-0.763 3.943,-1.454 6.079,-1.47 3.099,-0.022 5.321,1.746 6.067,4.755 0.545,2.191 0.259,4.37 -0.049,6.552 -0.055,0.39 -0.117,0.778 -0.205,1.363 0.994,-0.639 1.396,-1.555 2.007,-2.271 3.138,-3.678 6.689,-6.719 11.569,-7.824 0.943,-0.213 1.883,-0.247 2.828,-0.165 3.196,0.277 4.691,1.866 4.641,5.062 -0.022,1.391 -0.252,2.782 -0.426,4.168 -0.172,1.382 -0.391,2.757 -0.625,4.391 0.872,-0.701 1.136,-1.512 1.57,-2.186 3.125,-4.848 6.87,-8.979 12.582,-10.791 1.991,-0.633 4.028,-0.736 6.038,-0.021 1.489,0.53 2.373,1.552 2.597,3.166 0.356,2.578 -0.26,5.072 -0.583,7.59 -0.554,4.309 -1.312,8.596 -1.278,12.962 0.009,1.204 0.132,2.397 0.529,3.54 0.716,2.059 2.514,2.661 4.287,1.391 1.992,-1.428 2.983,-3.57 3.943,-5.73 0.191,-0.434 0.129,-1.279 0.963,-1.049 0.664,0.183 0.804,0.84 0.828,1.462 0.067,1.692 -0.747,3.106 -1.591,4.452 -2.134,3.409 -5.058,5.888 -8.919,7.176 -4.633,1.545 -8.879,-0.718 -10.101,-5.438 -1.043,-4.029 -0.347,-8.048 0.205,-12.059 0.382,-2.772 0.833,-5.536 1.153,-8.316 0.113,-0.988 0.461,-2.264 -0.707,-2.837 -1.133,-0.557 -2.143,0.213 -2.985,0.919 -3.067,2.569 -4.972,5.957 -6.536,9.559 -2.213,5.1 -3.402,10.436 -3.564,15.991 -0.019,0.649 -0.219,0.985 -0.816,1.222 -1.6,0.631 -3.221,1.023 -4.955,0.795 -2.834,-0.374 -4.342,-2.018 -4.522,-4.857 -0.284,-4.477 0.483,-8.863 1.073,-13.266 0.358,-2.67 0.979,-5.307 1.074,-8.01 0.029,-0.82 0.279,-1.839 -0.617,-2.324 -1.01,-0.546 -1.938,0.027 -2.754,0.64 -2.676,2.007 -4.396,4.774 -5.84,7.693 -2.96,5.992 -4.627,12.325 -4.54,19.054 0.009,0.627 -0.206,0.841 -0.763,1.053 -4.384,1.664 -8.281,0.529 -8.748,-4.467 -0.007,-0.089 -0.092,-0.169 -0.237,-0.415 z"
       id="path19"
       inkscape:connector-curvature="0"
       style="clip-rule:evenodd;fill:#37322d;fill-rule:evenodd" />
    <path
       d="m 260.77039,-2.007 c 7.449,0.327 14.42,-1.188 20.943,-4.697 5.938,-3.195 10.701,-7.6 13.318,-13.901 2.84,-6.839 3.229,-13.793 -0.37,-20.528 -2.729,-5.107 -7.459,-7.636 -12.815,-9.095 -6.712,-1.828 -13.54,-1.709 -20.383,-0.908 -8.099,0.948 -15.897,2.91 -23.091,6.89 -4.631,2.562 -8.881,5.603 -12.01,9.963 -2.024,2.82 -3.183,5.901 -2.273,9.437 1.12,4.354 4.373,6.522 8.322,7.849 4.8,1.612 9.726,1.52 14.672,0.807 0.957,-0.137 2.037,-0.84 2.54,0.776 0.513,1.649 0.249,2.888 -1.132,3.62 -1.702,0.9 -3.591,1.211 -5.482,1.421 -5.433,0.601 -10.705,-0.099 -15.645,-2.45 -8.728,-4.153 -11.64,-13.41 -7.03,-21.986 2.898,-5.391 7.499,-9.053 12.629,-12.071 6.873,-4.044 14.327,-6.516 22.22,-7.679 9.936,-1.465 19.884,-2.031 29.861,-0.451 5.92,0.938 11.583,2.619 16.659,5.938 11.182,7.309 11.733,19.129 5.86,28.521 -4.593,7.348 -11.456,12.02 -19.138,15.58 -8.532,3.954 -17.494,6.156 -26.952,6.002 -1.001,-0.016 -1.404,0.303 -1.585,1.257 -1.467,7.704 -3.046,15.39 -3.939,23.19 -0.188,1.642 -0.353,3.293 -0.017,4.928 0.183,0.889 -0.168,1.24 -0.964,1.491 -3.511,1.106 -6.256,-0.642 -6.598,-4.287 -0.387,-4.118 0.29,-8.181 0.793,-12.239 1.975,-15.919 4.025,-31.83 4.67,-47.875 0.15,-3.745 0.137,-7.502 -0.277,-11.234 -0.111,-1.009 0.15,-1.575 1.108,-1.942 1.543,-0.592 3.072,-1.204 4.738,-1.344 4.791,-0.401 7.815,2.178 8.179,6.997 0.273,3.625 -0.294,7.174 -1.045,10.702 -1.882,8.835 -3.764,17.669 -5.643,26.503 -0.051,0.237 -0.074,0.483 -0.123,0.815 z"
       id="path21"
       inkscape:connector-curvature="0"
       style="clip-rule:evenodd;fill:#37322d;fill-rule:evenodd" />
    <path
       d="m 535.29139,101.488 c -1.373,0.231 -2.549,0.609 -3.804,0.619 -0.806,0.006 -0.854,0.738 -1.122,1.231 -2.572,4.729 -6.343,7.757 -11.82,8.413 -5.803,0.693 -10.625,-2.055 -13.06,-7.419 -3.07,-6.765 -1.307,-19.497 7.213,-24.683 3.046,-1.854 6.273,-3.078 9.938,-2.459 0.6,0.101 1.027,-0.148 1.502,-0.475 3.178,-2.186 6.326,-1.297 7.787,2.262 1.397,3.408 1.416,7.025 1.299,10.629 -0.09,2.793 -0.172,5.599 -0.982,8.311 -0.35,1.168 0.267,1.191 1.052,0.852 2.478,-1.068 4.218,-2.971 5.048,-5.449 1.175,-3.508 1.781,-7.17 2.234,-10.85 0.104,-0.843 -0.241,-1.256 -0.812,-1.742 -2.869,-2.443 -3.769,-5.55 -2.482,-8.385 0.488,-1.077 1.236,-1.922 2.265,-2.521 2.095,-1.223 4.034,-0.668 5.14,1.494 0.73,1.428 0.857,2.977 0.719,4.529 -0.085,0.962 0.249,1.135 1.148,1.162 3.715,0.108 7.382,-0.368 11.059,-0.755 2.577,-0.271 3.527,0.548 3.152,3.087 -0.658,4.443 -1.55,8.852 -2.232,13.292 -0.502,3.258 -0.91,6.538 -0.525,9.85 0.087,0.752 0.25,1.48 0.574,2.163 0.722,1.527 2.275,2.066 3.746,1.267 1.405,-0.764 2.354,-1.984 3.172,-3.32 0.193,-0.315 0.199,-0.614 0.086,-0.987 -2.074,-6.868 -0.25,-13.069 3.599,-18.734 3.177,-4.675 7.762,-7.41 13.4,-8.204 7.194,-1.014 12.038,4.316 10.392,11.4 -1.566,6.745 -6.496,9.723 -12.693,11.213 -1.107,0.266 -2.281,0.41 -3.416,0.37 -1.471,-0.053 -1.304,0.581 -0.841,1.499 1.656,3.284 4.331,5.424 7.847,6.215 4.877,1.098 9.283,-0.268 13.194,-3.303 0.758,-0.588 1.285,-1.381 1.804,-2.186 0.258,-0.402 0.201,-1.271 1.011,-1.025 0.714,0.218 0.917,0.928 0.877,1.592 -0.079,1.316 -0.487,2.535 -1.276,3.623 -1.592,2.197 -3.675,3.822 -6.068,5.004 -6.207,3.066 -12.575,4.203 -19.184,1.232 -2.453,-1.103 -4.591,-2.669 -6.285,-4.744 -0.749,-0.917 -1.037,-0.656 -1.592,0.106 -1.885,2.595 -4.236,4.69 -7.235,5.876 -6.305,2.49 -11.173,-0.743 -11.594,-7.6 -0.294,-4.782 0.478,-9.464 1.336,-14.135 0.343,-1.863 0.749,-3.717 1.197,-5.559 0.185,-0.76 -0.025,-0.982 -0.767,-0.998 -1.348,-0.028 -2.698,-0.072 -4.037,-0.215 -0.906,-0.096 -0.931,0.467 -1.071,1.07 -1.233,5.314 -2.743,10.541 -5.063,15.496 -0.613,1.311 -1.346,2.566 -2.057,3.827 -0.397,0.702 -0.928,1.322 -1.67,1.675 -0.458,0.217 -0.969,0.265 -1.381,-0.181 -0.396,-0.429 -0.184,-0.82 0.049,-1.226 0.414,-0.73 0.819,-1.468 1.229,-2.204 z m -13.836,4.531 c 2.176,-0.021 5.217,-2.197 5.996,-4.212 0.276,-0.714 -0.213,-0.884 -0.611,-1.141 -1.195,-0.772 -2.203,-1.737 -2.917,-2.968 -3.159,-5.447 -4.043,-11.201 -2.289,-17.305 0.091,-0.316 0.44,-0.664 0.181,-0.961 -0.293,-0.338 -0.761,-0.172 -1.137,-0.073 -1.457,0.384 -2.418,1.429 -3.102,2.665 -3.412,6.182 -3.928,12.717 -1.957,19.411 0.872,2.967 3.259,4.609 5.836,4.584 z m 63.721,-23.958 c 0,-0.552 0.018,-0.704 -0.004,-0.852 -0.225,-1.567 -0.145,-3.46 -2.027,-3.985 -1.893,-0.528 -2.847,1.078 -3.748,2.391 -2.979,4.334 -4.068,9.266 -4.482,14.406 -0.088,1.092 0.292,1.242 1.299,0.904 4.799,-1.611 8.846,-7.544 8.962,-12.864 z m -55.037,8.555 c 0.021,-1.451 -0.02,-2.893 -0.484,-4.284 -0.305,-0.912 -0.635,-1.894 -1.793,-1.925 -1.104,-0.029 -1.648,0.781 -2.004,1.725 -1.213,3.216 -0.738,6.359 0.42,9.467 0.357,0.954 1.006,1.705 1.777,2.363 0.648,0.553 0.997,0.637 1.259,-0.396 0.579,-2.29 0.756,-4.61 0.825,-6.95 z"
       id="path23"
       inkscape:connector-curvature="0"
       style="clip-rule:evenodd;fill:#37322d;fill-rule:evenodd" />
    <path
       d="m 345.97039,76.711 c -2.409,-0.563 -4.479,-1.001 -6.522,-1.538 -3.11,-0.816 -6.049,-2.042 -8.682,-3.928 -5.64,-4.041 -6.614,-10.385 -2.456,-15.962 3.407,-4.569 8.066,-7.426 13.277,-9.394 10.02,-3.783 20.255,-4.826 30.708,-1.922 2.028,0.562 3.938,1.41 5.64,2.689 3.947,2.967 4.977,7.414 2.72,11.846 -3.01,5.912 -11.703,10.576 -18.315,9.828 -4.303,-0.488 -5.949,-3.35 -4.221,-7.342 0.179,-0.412 0.357,-0.825 0.566,-1.221 1.227,-2.32 1.198,-2.265 3.416,-0.926 3.767,2.275 7.745,2.607 11.731,0.717 4.723,-2.24 5.041,-7.496 0.695,-10.383 -3.144,-2.088 -6.744,-2.7 -10.41,-2.918 -5.899,-0.35 -11.708,0.063 -17.092,2.811 -3.401,1.736 -6.157,4.158 -7.08,8.061 -1.391,5.883 1.498,11.899 7.146,15.154 3.415,1.969 7.101,2.541 10.98,2.231 0.608,-0.048 1.552,-0.548 1.714,0.528 0.163,1.086 -0.427,1.777 -1.586,1.934 -3.711,0.506 -7.413,1.056 -10.97,2.305 -4.574,1.607 -8.497,4.001 -10.553,8.669 -4.134,9.386 0.872,18.729 10.979,20.452 4.634,0.791 9.191,0.438 13.497,-1.498 6.138,-2.76 9.049,-7.886 9.975,-14.312 0.579,-4.018 0.534,-4.016 -3.556,-3.957 -1.811,0.025 -3.586,0.246 -5.311,0.811 -1.494,0.49 -2.502,1.446 -2.746,3.047 -0.239,1.562 0.701,2.521 1.833,3.348 0.941,0.688 2.014,1.096 3.124,1.416 0.332,0.096 0.749,0.139 0.734,0.596 -0.013,0.377 -0.312,0.6 -0.645,0.762 -0.668,0.326 -1.358,0.268 -2.055,0.137 -5.294,-0.99 -9.428,-6.951 -8.451,-12.234 0.341,-1.844 1.548,-3.102 3.07,-4.068 2.892,-1.836 6.158,-2.598 9.48,-3.067 5.162,-0.729 10.354,-0.876 15.551,-0.367 3.636,0.356 6.157,2.276 6.801,5.136 0.438,1.945 -0.201,3.644 -1.268,5.223 -0.625,0.926 -1.566,0.478 -2.345,0.393 -3.377,-0.369 -6.759,-0.669 -10.148,-0.905 -0.979,-0.069 -1.346,0.087 -1.436,1.206 -0.848,10.68 -6.536,17.965 -16.381,20.965 -5.354,1.633 -10.85,2.287 -16.441,1.824 -4.12,-0.342 -8.075,-1.33 -11.729,-3.35 -10.591,-5.855 -11.267,-18.715 -1.354,-25.658 4.88,-3.418 10.453,-5.131 16.121,-6.621 0.552,-0.148 1.103,-0.288 1.995,-0.518 z"
       id="path25"
       inkscape:connector-curvature="0"
       style="clip-rule:evenodd;fill:#37322d;fill-rule:evenodd" />
    <path
       d="m 548.39839,-42.385 c 1.846,-0.055 3.593,0.172 5.148,1.238 2.768,1.899 3.407,5.502 1.322,8.123 -1.773,2.23 -4.034,3.845 -6.665,4.957 -1.28,0.542 -2.415,0.386 -3.515,-0.434 -3.069,-2.291 -5.528,-7.131 -1.998,-11.065 0.088,-0.098 0.094,-0.271 0.17,-0.505 -2.935,-0.754 -5.889,-1.188 -8.859,-1.554 -11.771,-1.452 -23.594,-2.113 -35.449,-1.98 -11.096,0.125 -22.158,0.982 -33.221,1.8 -5.342,0.395 -10.689,0.546 -15.945,-0.827 -2.343,-0.612 -4.562,-1.465 -6.308,-3.26 -1.94,-1.996 -2.435,-4.302 -1.496,-6.893 1.692,-4.676 7.766,-7.088 11.942,-4.656 -0.82,0.76 -1.807,1.264 -2.527,2.082 -1.669,1.896 -1.369,3.721 0.893,4.837 2.58,1.274 5.393,1.44 8.186,1.433 6.502,-0.017 12.961,-0.793 19.434,-1.305 10.159,-0.803 20.309,-1.721 30.467,-2.552 8.564,-0.702 17.131,-1.383 25.701,-2.002 2.898,-0.209 5.791,0.002 8.615,0.792 1.998,0.559 3.627,1.681 4.832,3.344 1.555,2.146 0.914,4.365 0.045,6.558 -0.233,0.588 -0.721,1.07 -0.772,1.869 z"
       id="path27"
       inkscape:connector-curvature="0"
       style="clip-rule:evenodd;fill:#37322d;fill-rule:evenodd" />
    <path
       d="m 477.86039,28.657 c 0.19,-5.533 1.577,-10.509 2.628,-15.54 2.91,-13.921 6.416,-27.719 8.62,-41.784 0.573,-3.654 1.067,-7.328 0.501,-11.037 -0.104,-0.675 0.138,-0.961 0.768,-1.199 3.693,-1.398 6.771,0.66 7.012,4.793 0.221,3.811 -0.3,7.587 -0.732,11.356 -1.748,15.241 -3.624,30.469 -4.84,45.767 -0.342,4.297 -0.238,8.592 0.156,12.878 0.088,0.954 -0.16,1.448 -1.078,1.806 -2.074,0.809 -4.193,1.314 -6.42,1.329 -3.648,0.024 -6.055,-2.098 -6.467,-5.725 -0.114,-0.99 -0.114,-1.993 -0.148,-2.644 z"
       id="path29"
       inkscape:connector-curvature="0"
       style="clip-rule:evenodd;fill:#37322d;fill-rule:evenodd" />
    <path
       d="m 444.81339,7.852 c -0.023,5.901 -5.249,12.644 -10.96,14.13 -0.383,0.1 -0.787,0.181 -1.179,0.172 -0.804,-0.018 -1.805,-0.058 -1.987,-0.955 -0.168,-0.824 0.879,-0.76 1.403,-1.039 1.323,-0.703 2.658,-1.369 3.596,-2.609 1.382,-1.826 1.057,-3.604 -0.912,-4.779 -0.554,-0.331 -1.151,-0.59 -1.702,-0.924 -3.966,-2.41 -4.098,-6.902 -0.227,-9.471 2.314,-1.535 4.896,-1.945 7.589,-1.228 2.834,0.755 4.394,3.202 4.379,6.703 z"
       id="path31"
       inkscape:connector-curvature="0"
       style="clip-rule:evenodd;fill:#37322d;fill-rule:evenodd" />
    <path
       d="m 358.48539,-40.622 c 3.925,-0.032 6.797,2.454 6.91,5.948 0.045,1.382 -0.479,2.531 -1.323,3.56 -1.812,2.203 -4.085,3.779 -6.711,4.865 -0.923,0.381 -1.85,0.494 -2.727,-0.063 -2.492,-1.584 -4.142,-3.79 -4.363,-6.776 -0.268,-3.602 3.094,-7.004 7.169,-7.462 0.347,-0.039 0.697,-0.05 1.045,-0.072 z"
       id="path33"
       inkscape:connector-curvature="0"
       style="clip-rule:evenodd;fill:#37322d;fill-rule:evenodd" />
  </g>
</svg>
